<?xml version="1.0" encoding="iso-8859-1"?>
<!-- Generator: Adobe Illustrator 19.0.0, SVG Export Plug-In . SVG Version: 6.00 Build 0)  -->
<svg version="1.1" id="Capa_1" xmlns="http://www.w3.org/2000/svg" xmlns:xlink="http://www.w3.org/1999/xlink" x="0px" y="0px"
	 viewBox="0 0 426.667 426.667" style="fill: #fff" xml:space="preserve">
<g>
	<g>
		<path d="M426.667,170.667V85.333c0-23.573-19.093-42.667-42.667-42.667H42.667c-23.573,0-42.453,19.093-42.453,42.667
			l-0.107,85.333c23.573,0.107,42.56,19.2,42.56,42.667c0,23.573-19.093,42.667-42.56,42.667L0,341.333
			C0,364.907,19.093,384,42.667,384H384c23.573,0,42.667-19.093,42.667-42.667V256C403.093,256,384,236.907,384,213.333
			S403.093,170.667,426.667,170.667z M289.707,315.733l-76.373-49.067l-76.373,49.067L160,227.947L89.813,170.56l90.56-5.333
			l32.96-84.16l32.96,84.16l90.56,5.333l-70.187,57.387L289.707,315.733z"/>
	</g>
</g>
<g>
</g>
<g>
</g>
<g>
</g>
<g>
</g>
<g>
</g>
<g>
</g>
<g>
</g>
<g>
</g>
<g>
</g>
<g>
</g>
<g>
</g>
<g>
</g>
<g>
</g>
<g>
</g>
<g>
</g>
</svg>
